<svg version="1.0" xmlns="http://www.w3.org/2000/svg" width="1365.333" height="1365.333" viewBox="0 0 1024 1024"><path d="M489.5.6c-34.9 2.6-57.4 5.6-82.1 11-71.4 15.3-140.9 46.8-199.2 90.3-38.4 28.6-76.2 66.4-105.7 105.6-117.1 155.9-135.2 368.7-46.1 542 15.7 30.6 35.6 62.1 38.4 61 1.3-.5 1.4-.3.5.6-.9.9-.8 1.7.4 3.5.8 1.3 2 2.1 2.6 1.7.5-.3.7-.1.3.5-.7 1.2 4.1 6.8 5.6 6.4 1.7-.5 822.9-.3 823.7.2.5.3 1.9-.6 3.1-1.9 1.3-1.4 1.9-2.5 1.4-2.5s.1-.8 1.3-1.8c1.2-.9 2.3-2.4 2.5-3.2.2-.8 1.3-2.4 2.5-3.5 6.1-5.7 28.8-44 41.3-70 18-37.2 28.6-67.1 39.3-111l4.1-17 .3-93c.4-104.9.9-96.2-7.8-131-34-134.7-122.8-251.1-244.8-320.9C707.6 31.2 637.6 9.3 562 2 550.5.9 498.9-.1 489.5.6zm184.1 402.3c18.5 4.6 32.7 12 45.3 23.8 6.5 6 16.2 18.4 17.3 22 .3.9-38.1 30.8-38.7 30.1-.1-.2-1.9-2.9-3.9-6.1-10-15.2-30.2-25.7-49.6-25.7-31.4 0-55 25.9-57.7 63.1-2.4 34.2 16.1 64 44.3 71.4 7.6 2 23.3 1.9 30.9 0 12.2-3.2 23.7-10 33.8-19.9 5-5 5.7-6.1 5.7-9.6v-4h-44v-38h88v119h-44v-22.2l-4.1 3.6c-16.7 15.2-41.5 22.4-66.7 19.6-47.2-5.2-83.9-39.2-94.7-87.5-2.4-10.9-3-37-1.1-48.6 5.1-31 22.9-58.4 49.1-75.5 13.3-8.6 26.4-13.9 42.7-17 10.6-2 36.7-1.2 47.4 1.5zM165.2 460c16 32.4 29.4 59 29.7 59 .3-.1 13.7-26.6 29.8-59.1l29.2-58.9 28.3.2 28.3.3.3 113.7.2 113.8h-53l-.1-67.3-.1-67.2-24.1 48.8-24.1 48.8-14.9-.3-14.9-.3-23.6-48.1-23.7-48.2-.3 66.9-.2 66.9H79V515.7c0-62.4.3-113.7.7-114 .3-.4 13.2-.7 28.5-.7h27.9l29.1 59zm283.8-.3c43 8.5 71.6 49 66.9 94.6-2.2 21.9-10.8 39.8-26 54.3-11.3 10.7-21.8 16.6-36.4 20.5-10 2.6-33.5 3.7-44.5 2-27.6-4.3-50.6-21.1-63.1-46-5.6-11.3-8-21.2-8.6-36.1-1.1-26.3 6.5-47.5 23.1-64.9 14.5-15.1 32.1-23.7 53.3-26.1 9.7-1 25.4-.3 35.3 1.7zm425.5-.6c18.4 3 35.5 12.4 48.4 26.5 15.9 17.3 24.4 45.5 21.3 70.1-4.6 36-26.7 62.5-60.9 73-8.3 2.5-10 2.7-28.3 2.7-16.9 0-20.5-.3-27.2-2.1-23.2-6.5-42.8-22.6-53.3-43.8-6-12.1-8.6-23-9-38-1.4-47.7 30.6-84.7 77.5-89.5 8.4-.9 22.4-.4 31.5 1.1z"/><path d="M419.4 502c-11 2.3-20.3 10.2-25.7 21.8-2.8 6-3.1 7.8-3.5 18.3-.3 8.9 0 12.9 1.3 17.5 5.3 18.3 17.7 28.4 35 28.4 22.1 0 36.5-17 36.5-43 0-19.7-7.9-34-22.5-40.6-5.7-2.6-15.1-3.7-21.1-2.4zm427 .4c-18.5 4.5-29.4 22.1-28.1 45.6.7 14.8 6.3 26.8 15.6 33.6 6.5 4.7 12.1 6.4 21.6 6.4 7.1 0 9-.4 14.2-3 3.4-1.7 8-5.1 10.3-7.6 15-16.3 15.6-47.5 1.3-63.5-5.8-6.4-10.7-9.5-18-11.4-6.7-1.8-10-1.8-16.9-.1zM921 825c-.9.6-1 1-.3 1 .6 0 1.5-.5 1.8-1 .8-1.2.4-1.2-1.5 0zm-815 2c-.8.5-1 1-.5 1 .6 0 1.7-.5 2.5-1s1.1-1 .5-1c-.5 0-1.7.5-2.5 1zm814.5 1.1c-.4.6-.5 1.2-.2 1.5.2.3.7-.2 1-1.1.7-1.7.1-2-.8-.4zm2.6 2.5c0 1.1.3 1.4.6.6.3-.7.2-1.6-.1-1.9-.3-.4-.6.2-.5 1.3zm-811.3 2.1c.7.3 1.6.2 1.9-.1.4-.3-.2-.6-1.3-.5-1.1 0-1.4.3-.6.6zm3.2.3c0 .5.7.7 1.5.4.8-.4 1.5-.8 1.5-1 0-.2-.7-.4-1.5-.4s-1.5.4-1.5 1z"/></svg>