<?xml version="1.0" standalone="no"?>
<!DOCTYPE svg PUBLIC "-//W3C//DTD SVG 20010904//EN"
 "http://www.w3.org/TR/2001/REC-SVG-20010904/DTD/svg10.dtd">
<svg version="1.0" xmlns="http://www.w3.org/2000/svg"
 width="1024.000000pt" height="1024.000000pt" viewBox="0 0 1024.000000 1024.000000"
 preserveAspectRatio="xMidYMid meet">
<metadata>
Created by potrace 1.14, written by Peter Selinger 2001-2017
</metadata>
<g transform="translate(0.000000,1024.000000) scale(0.100000,-0.100000)"
fill="#000000" stroke="none">
<path d="M4895 10234 c-349 -26 -574 -56 -821 -110 -714 -153 -1409 -468
-1992 -903 -384 -286 -762 -664 -1057 -1056 -1171 -1559 -1352 -3687 -461
-5420 157 -306 356 -621 384 -610 13 5 14 3 5 -6 -9 -9 -8 -17 4 -35 8 -13 20
-21 26 -17 5 3 7 1 3 -5 -7 -12 41 -68 56 -64 17 5 8229 3 8237 -2 5 -3 19 6
31 19 13 14 19 25 14 25 -5 0 1 8 13 18 12 9 23 24 25 32 2 8 13 24 25 35 61
57 288 440 413 700 180 372 286 671 393 1110 l41 170 3 930 c4 1049 9 962 -78
1310 -340 1347 -1228 2511 -2448 3209 -635 364 -1335 583 -2091 656 -115 11
-631 21 -725 14z m1841 -4023 c185 -46 327 -120 453 -238 65 -60 162 -184 173
-220 3 -9 -381 -308 -387 -301 -1 2 -19 29 -39 61 -100 152 -302 257 -496 257
-314 0 -550 -259 -577 -631 -24 -342 161 -640 443 -714 76 -20 233 -19 309 0
122 32 237 100 338 199 50 50 57 61 57 96 l0 40 -220 0 -220 0 0 190 0 190
440 0 440 0 0 -595 0 -595 -220 0 -220 0 0 111 0 111 -41 -36 c-167 -152 -415
-224 -667 -196 -472 52 -839 392 -947 875 -24 109 -30 370 -11 486 51 310 229
584 491 755 133 86 264 139 427 170 106 20 367 12 474 -15z m-5084 -571 c160
-324 294 -590 297 -590 3 1 137 266 298 591 l292 589 283 -2 283 -3 3 -1137 2
-1138 -265 0 -265 0 -1 673 -1 672 -241 -488 -241 -488 -149 3 -149 3 -236
481 -237 482 -3 -669 -2 -669 -265 0 -265 0 0 1133 c0 624 3 1137 7 1140 3 4
132 7 285 7 l279 0 291 -590z m2838 3 c430 -85 716 -490 669 -946 -22 -219
-108 -398 -260 -543 -113 -107 -218 -166 -364 -205 -100 -26 -335 -37 -445
-20 -276 43 -506 211 -631 460 -56 113 -80 212 -86 361 -11 263 65 475 231
649 145 151 321 237 533 261 97 10 254 3 353 -17z m4255 6 c184 -30 355 -124
484 -265 159 -173 244 -455 213 -701 -46 -360 -267 -625 -609 -730 -83 -25
-100 -27 -283 -27 -169 0 -205 3 -272 21 -232 65 -428 226 -533 438 -60 121
-86 230 -90 380 -14 477 306 847 775 895 84 9 224 4 315 -11z"/>
<path d="M4194 5220 c-110 -23 -203 -102 -257 -218 -28 -60 -31 -78 -35 -183
-3 -89 0 -129 13 -175 53 -183 177 -284 350 -284 221 0 365 170 365 430 0 197
-79 340 -225 406 -57 26 -151 37 -211 24z"/>
<path d="M8464 5216 c-185 -45 -294 -221 -281 -456 7 -148 63 -268 156 -336
65 -47 121 -64 216 -64 71 0 90 4 142 30 34 17 80 51 103 76 150 163 156 475
13 635 -58 64 -107 95 -180 114 -67 18 -100 18 -169 1z"/>
<path d="M9210 1990 c-9 -6 -10 -10 -3 -10 6 0 15 5 18 10 8 12 4 12 -15 0z"/>
<path d="M1060 1970 c-8 -5 -10 -10 -5 -10 6 0 17 5 25 10 8 5 11 10 5 10 -5
0 -17 -5 -25 -10z"/>
<path d="M9205 1959 c-4 -6 -5 -12 -2 -15 2 -3 7 2 10 11 7 17 1 20 -8 4z"/>
<path d="M9231 1934 c0 -11 3 -14 6 -6 3 7 2 16 -1 19 -3 4 -6 -2 -5 -13z"/>
<path d="M1118 1913 c7 -3 16 -2 19 1 4 3 -2 6 -13 5 -11 0 -14 -3 -6 -6z"/>
<path d="M1150 1910 c0 -5 7 -7 15 -4 8 4 15 8 15 10 0 2 -7 4 -15 4 -8 0 -15
-4 -15 -10z"/>
</g>
</svg>
